<?xml version="1.0" encoding="UTF-8"?>
<svg xmlns="http://www.w3.org/2000/svg" xmlns:xlink="http://www.w3.org/1999/xlink" width="24px" height="24px" viewBox="0 0 24 24" version="1.1">
<g id="surface1">
<path style=" stroke:none;fill-rule:nonzero;fill:rgb(0%,0.392157%,0%);fill-opacity:1;" d="M 1.742188 3.542969 C 4.9375 3.542969 4.9375 3.542969 7.582031 3.542969 C 7.609375 3.542969 7.640625 3.542969 7.667969 3.542969 C 8.277344 3.542969 8.890625 3.542969 9.5 3.542969 C 9.804688 3.542969 10.113281 3.542969 10.417969 3.542969 C 10.464844 3.542969 10.511719 3.542969 10.558594 3.542969 C 11.269531 3.542969 11.980469 3.542969 12.695312 3.542969 C 12.710938 3.542969 12.726562 3.542969 12.742188 3.542969 C 12.988281 3.542969 13.234375 3.539062 13.480469 3.539062 C 14.191406 3.539062 14.902344 3.539062 15.613281 3.539062 C 15.628906 3.539062 15.644531 3.539062 15.660156 3.539062 C 15.980469 3.539062 16.300781 3.539062 16.621094 3.539062 C 16.75 3.539062 16.878906 3.539062 17.007812 3.539062 C 17.023438 3.539062 17.039062 3.539062 17.050781 3.539062 C 17.507812 3.539062 17.964844 3.539062 18.417969 3.539062 C 18.878906 3.539062 19.335938 3.539062 19.796875 3.539062 C 19.859375 3.539062 19.921875 3.539062 19.984375 3.539062 C 19.996094 3.539062 20.011719 3.539062 20.023438 3.539062 C 20.230469 3.539062 20.441406 3.539062 20.648438 3.539062 C 20.832031 3.539062 21.011719 3.539062 21.195312 3.539062 C 21.296875 3.539062 21.402344 3.539062 21.503906 3.539062 C 21.597656 3.539062 21.691406 3.539062 21.789062 3.539062 C 21.820312 3.539062 21.855469 3.539062 21.890625 3.539062 C 22.097656 3.539062 22.28125 3.550781 22.480469 3.617188 C 22.539062 3.632812 22.59375 3.644531 22.648438 3.65625 C 22.648438 3.667969 22.648438 3.679688 22.648438 3.695312 C 22.660156 3.695312 22.671875 3.699219 22.683594 3.703125 C 22.769531 3.730469 22.851562 3.761719 22.929688 3.804688 C 22.945312 3.8125 22.960938 3.820312 22.972656 3.824219 C 23.007812 3.84375 23.007812 3.84375 23.023438 3.882812 C 23.0625 3.902344 23.097656 3.917969 23.136719 3.9375 C 23.136719 3.949219 23.136719 3.960938 23.136719 3.976562 C 23.15625 3.976562 23.175781 3.976562 23.195312 3.976562 C 23.226562 4.003906 23.257812 4.035156 23.289062 4.070312 C 23.300781 4.078125 23.316406 4.089844 23.332031 4.101562 C 23.347656 4.113281 23.347656 4.113281 23.363281 4.125 C 23.363281 4.136719 23.363281 4.148438 23.363281 4.164062 C 23.375 4.167969 23.390625 4.167969 23.40625 4.171875 C 23.464844 4.203125 23.480469 4.234375 23.507812 4.292969 C 23.542969 4.351562 23.589844 4.398438 23.636719 4.445312 C 23.664062 4.480469 23.664062 4.480469 23.664062 4.554688 C 23.679688 4.5625 23.699219 4.570312 23.71875 4.574219 C 23.730469 4.605469 23.746094 4.636719 23.757812 4.667969 C 23.769531 4.691406 23.789062 4.71875 23.804688 4.742188 C 23.847656 4.808594 23.867188 4.871094 23.886719 4.949219 C 23.894531 4.976562 23.90625 5.003906 23.914062 5.03125 C 23.925781 5.0625 23.933594 5.089844 23.945312 5.117188 C 23.949219 5.128906 23.953125 5.140625 23.957031 5.152344 C 24.003906 5.273438 24.007812 5.386719 24.007812 5.515625 C 24.007812 5.539062 24.007812 5.5625 24.007812 5.585938 C 24.007812 5.648438 24.007812 5.710938 24.007812 5.773438 C 24.007812 5.84375 24.007812 5.910156 24.007812 5.980469 C 24.007812 6.101562 24.007812 6.21875 24.007812 6.339844 C 24.007812 6.519531 24.007812 6.699219 24.007812 6.875 C 24.007812 7.214844 24.007812 7.550781 24.007812 7.890625 C 24.007812 8.152344 24.007812 8.410156 24.007812 8.671875 C 24.007812 8.710938 24.007812 8.746094 24.007812 8.785156 C 24.007812 8.804688 24.007812 8.820312 24.007812 8.839844 C 24.007812 8.871094 24.007812 8.871094 24.007812 8.898438 C 24.007812 8.917969 24.007812 8.933594 24.007812 8.953125 C 24.007812 9.480469 24.007812 10.003906 24.007812 10.53125 C 24.007812 10.550781 24.007812 10.570312 24.007812 10.589844 C 24.007812 10.691406 24.007812 10.789062 24.007812 10.890625 C 24.007812 10.910156 24.007812 10.929688 24.007812 10.949219 C 24.007812 10.992188 24.007812 11.03125 24.007812 11.070312 C 24.007812 11.699219 24.007812 12.324219 24.011719 12.953125 C 24.011719 13.65625 24.011719 14.363281 24.011719 15.066406 C 24.011719 15.140625 24.011719 15.214844 24.011719 15.289062 C 24.011719 15.308594 24.011719 15.328125 24.011719 15.347656 C 24.011719 15.625 24.011719 15.90625 24.011719 16.183594 C 24.011719 16.5 24.011719 16.820312 24.011719 17.136719 C 24.011719 17.316406 24.011719 17.492188 24.011719 17.667969 C 24.011719 17.789062 24.011719 17.90625 24.011719 18.027344 C 24.011719 18.09375 24.011719 18.160156 24.011719 18.230469 C 24.015625 18.78125 24.015625 18.78125 23.886719 19.035156 C 23.863281 19.074219 23.863281 19.074219 23.855469 19.136719 C 23.835938 19.222656 23.792969 19.28125 23.742188 19.351562 C 23.714844 19.386719 23.714844 19.386719 23.699219 19.445312 C 23.6875 19.445312 23.675781 19.445312 23.664062 19.445312 C 23.660156 19.457031 23.660156 19.472656 23.660156 19.484375 C 23.640625 19.554688 23.601562 19.582031 23.550781 19.632812 C 23.53125 19.660156 23.511719 19.691406 23.492188 19.726562 C 23.464844 19.769531 23.464844 19.769531 23.4375 19.800781 C 23.425781 19.800781 23.414062 19.800781 23.398438 19.800781 C 23.394531 19.8125 23.390625 19.820312 23.386719 19.832031 C 23.355469 19.886719 23.316406 19.914062 23.261719 19.949219 C 23.207031 19.988281 23.160156 20.019531 23.117188 20.066406 C 23.082031 20.101562 23.082031 20.101562 23.007812 20.101562 C 23 20.117188 22.992188 20.136719 22.988281 20.15625 C 22.957031 20.167969 22.925781 20.183594 22.894531 20.195312 C 22.871094 20.207031 22.84375 20.226562 22.820312 20.242188 C 22.753906 20.285156 22.691406 20.304688 22.613281 20.324219 C 22.570312 20.339844 22.53125 20.351562 22.492188 20.367188 C 22.371094 20.402344 22.265625 20.425781 22.144531 20.421875 C 22.128906 20.421875 22.113281 20.421875 22.101562 20.421875 C 22.050781 20.421875 22.003906 20.421875 21.953125 20.421875 C 21.917969 20.421875 21.882812 20.421875 21.847656 20.421875 C 21.75 20.425781 21.65625 20.421875 21.558594 20.421875 C 21.453125 20.421875 21.347656 20.421875 21.242188 20.425781 C 21.054688 20.425781 20.871094 20.425781 20.6875 20.425781 C 20.488281 20.425781 20.289062 20.425781 20.089844 20.425781 C 20.078125 20.425781 20.066406 20.425781 20.054688 20.425781 C 20 20.425781 19.949219 20.425781 19.898438 20.425781 C 19.367188 20.425781 18.835938 20.425781 18.300781 20.425781 C 18.246094 20.425781 18.1875 20.425781 18.128906 20.425781 C 18.117188 20.425781 18.101562 20.425781 18.085938 20.425781 C 17.773438 20.425781 17.457031 20.425781 17.140625 20.425781 C 17.011719 20.425781 16.882812 20.425781 16.75 20.425781 C 16.730469 20.425781 16.730469 20.425781 16.707031 20.425781 C 15.886719 20.425781 15.0625 20.425781 14.242188 20.425781 C 14.210938 20.425781 14.179688 20.425781 14.148438 20.425781 C 14.011719 20.425781 13.871094 20.425781 13.734375 20.425781 C 13.671875 20.425781 13.609375 20.425781 13.546875 20.425781 C 13.515625 20.425781 13.484375 20.425781 13.453125 20.425781 C 12.472656 20.425781 11.492188 20.425781 10.515625 20.425781 C 10.265625 20.425781 10.019531 20.425781 9.773438 20.425781 C 9.757812 20.425781 9.742188 20.425781 9.726562 20.425781 C 9.257812 20.425781 8.789062 20.425781 8.320312 20.425781 C 8.296875 20.425781 8.296875 20.425781 8.277344 20.425781 C 7.953125 20.425781 7.628906 20.425781 7.308594 20.425781 C 7.191406 20.425781 7.074219 20.425781 6.960938 20.425781 C 6.929688 20.425781 6.902344 20.425781 6.875 20.425781 C 6.414062 20.425781 5.957031 20.425781 5.5 20.429688 C 5.039062 20.429688 4.578125 20.429688 4.113281 20.429688 C 4.050781 20.429688 3.988281 20.429688 3.921875 20.429688 C 3.910156 20.429688 3.898438 20.429688 3.886719 20.429688 C 3.675781 20.429688 3.464844 20.429688 3.257812 20.429688 C 3.074219 20.429688 2.890625 20.429688 2.707031 20.429688 C 2.605469 20.429688 2.5 20.429688 2.394531 20.429688 C 2.300781 20.429688 2.207031 20.429688 2.113281 20.429688 C 2.078125 20.429688 2.042969 20.429688 2.011719 20.429688 C 1.796875 20.429688 1.597656 20.421875 1.402344 20.324219 C 1.363281 20.300781 1.363281 20.300781 1.300781 20.292969 C 1.214844 20.273438 1.15625 20.230469 1.085938 20.179688 C 1.050781 20.152344 1.050781 20.152344 0.992188 20.136719 C 0.992188 20.125 0.992188 20.113281 0.992188 20.101562 C 0.980469 20.097656 0.964844 20.097656 0.953125 20.09375 C 0.886719 20.078125 0.855469 20.050781 0.804688 20.007812 C 0.734375 19.941406 0.734375 19.941406 0.652344 19.894531 C 0.570312 19.851562 0.53125 19.78125 0.488281 19.707031 C 0.472656 19.691406 0.460938 19.679688 0.445312 19.667969 C 0.414062 19.632812 0.414062 19.632812 0.414062 19.574219 C 0.398438 19.574219 0.386719 19.574219 0.375 19.574219 C 0.335938 19.539062 0.335938 19.539062 0.328125 19.5 C 0.324219 19.488281 0.320312 19.476562 0.320312 19.460938 C 0.304688 19.457031 0.292969 19.449219 0.28125 19.445312 C 0.273438 19.417969 0.269531 19.394531 0.261719 19.367188 C 0.25 19.363281 0.238281 19.355469 0.226562 19.351562 C 0.183594 19.265625 0.15625 19.179688 0.132812 19.085938 C 0.117188 19.085938 0.105469 19.085938 0.09375 19.085938 C 0.09375 19.074219 0.0898438 19.058594 0.0898438 19.042969 C 0.0742188 18.96875 0.0546875 18.902344 0.03125 18.832031 C 0.0078125 18.757812 -0.00390625 18.695312 -0.00390625 18.617188 C -0.00390625 18.597656 -0.00390625 18.578125 -0.00390625 18.558594 C -0.00390625 18.527344 -0.00390625 18.527344 -0.00390625 18.492188 C -0.00390625 18.472656 -0.00390625 18.449219 -0.00390625 18.425781 C -0.00390625 18.363281 -0.00390625 18.296875 -0.00390625 18.234375 C -0.00390625 18.164062 -0.00390625 18.097656 -0.00390625 18.027344 C -0.00390625 17.90625 -0.00390625 17.785156 -0.00390625 17.667969 C -0.00390625 17.488281 -0.00390625 17.308594 -0.00390625 17.128906 C -0.00390625 16.808594 -0.00390625 16.484375 -0.00390625 16.164062 C -0.00390625 15.886719 -0.00390625 15.605469 -0.00390625 15.324219 C -0.00390625 15.304688 -0.00390625 15.285156 -0.00390625 15.265625 C -0.00390625 15.191406 -0.00390625 15.117188 -0.00390625 15.039062 C -0.00390625 14.332031 -0.00390625 13.625 -0.00390625 12.914062 C -0.00390625 12.285156 -0.00390625 11.65625 -0.00390625 11.027344 C -0.00390625 10.320312 -0.00390625 9.613281 -0.00390625 8.90625 C -0.00390625 8.828125 -0.00390625 8.753906 -0.00390625 8.679688 C -0.00390625 8.660156 -0.00390625 8.640625 -0.00390625 8.621094 C -0.00390625 8.34375 -0.00390625 8.0625 -0.00390625 7.78125 C -0.00390625 7.460938 -0.00390625 7.144531 -0.00390625 6.824219 C -0.00390625 6.644531 -0.00390625 6.46875 -0.00390625 6.289062 C -0.00390625 6.171875 -0.00390625 6.050781 -0.00390625 5.933594 C -0.00390625 5.863281 -0.00390625 5.796875 -0.00390625 5.726562 C -0.00390625 5.65625 -0.00390625 5.582031 -0.00390625 5.507812 C -0.00390625 5.488281 -0.00390625 5.464844 -0.00390625 5.445312 C -0.00390625 5.425781 -0.00390625 5.40625 -0.00390625 5.386719 C -0.00390625 5.367188 -0.00390625 5.351562 -0.00390625 5.335938 C 0 5.261719 0.0195312 5.191406 0.0390625 5.117188 C 0.0507812 5.117188 0.0625 5.117188 0.0742188 5.117188 C 0.0742188 5.0625 0.0742188 5.007812 0.0742188 4.949219 C 0.09375 4.941406 0.09375 4.941406 0.113281 4.929688 C 0.113281 4.910156 0.117188 4.890625 0.121094 4.871094 C 0.132812 4.800781 0.144531 4.777344 0.1875 4.726562 C 0.199219 4.699219 0.214844 4.675781 0.226562 4.648438 C 0.242188 4.613281 0.261719 4.574219 0.28125 4.539062 C 0.292969 4.539062 0.304688 4.539062 0.320312 4.539062 C 0.320312 4.523438 0.320312 4.511719 0.324219 4.496094 C 0.34375 4.429688 0.378906 4.398438 0.429688 4.351562 C 0.4375 4.324219 0.445312 4.300781 0.449219 4.273438 C 0.476562 4.265625 0.476562 4.265625 0.507812 4.257812 C 0.527344 4.21875 0.527344 4.21875 0.542969 4.179688 C 0.554688 4.179688 0.570312 4.179688 0.582031 4.179688 C 0.582031 4.167969 0.582031 4.15625 0.582031 4.144531 C 0.59375 4.144531 0.605469 4.144531 0.617188 4.144531 C 0.625 4.132812 0.628906 4.121094 0.632812 4.109375 C 0.667969 4.050781 0.691406 4.019531 0.757812 3.996094 C 0.8125 3.976562 0.8125 3.976562 0.855469 3.925781 C 0.898438 3.882812 0.898438 3.882812 0.976562 3.882812 C 0.984375 3.851562 0.984375 3.851562 0.992188 3.824219 C 1.035156 3.804688 1.035156 3.804688 1.085938 3.789062 C 1.128906 3.769531 1.160156 3.75 1.195312 3.722656 C 1.257812 3.679688 1.3125 3.679688 1.386719 3.675781 C 1.386719 3.664062 1.386719 3.648438 1.386719 3.636719 C 1.4375 3.632812 1.488281 3.625 1.539062 3.617188 C 1.539062 3.613281 1.539062 3.605469 1.539062 3.601562 C 1.640625 3.582031 1.640625 3.582031 1.742188 3.5625 C 1.742188 3.554688 1.742188 3.550781 1.742188 3.542969 Z M 2.476562 4.976562 C 2.46875 4.988281 2.464844 4.996094 2.457031 5.007812 C 2.488281 5.039062 2.519531 5.070312 2.550781 5.101562 C 2.5625 5.101562 2.574219 5.101562 2.585938 5.101562 C 2.585938 5.113281 2.585938 5.125 2.585938 5.136719 C 2.613281 5.167969 2.613281 5.167969 2.644531 5.195312 C 2.65625 5.195312 2.667969 5.195312 2.679688 5.195312 C 2.679688 5.207031 2.679688 5.21875 2.679688 5.230469 C 2.707031 5.261719 2.707031 5.261719 2.738281 5.289062 C 2.75 5.289062 2.761719 5.289062 2.773438 5.289062 C 2.773438 5.300781 2.773438 5.3125 2.773438 5.324219 C 2.804688 5.351562 2.804688 5.351562 2.839844 5.382812 C 2.90625 5.433594 2.90625 5.433594 2.925781 5.476562 C 2.9375 5.476562 2.949219 5.476562 2.960938 5.476562 C 2.960938 5.488281 2.960938 5.5 2.960938 5.511719 C 3.015625 5.550781 3.015625 5.550781 3.054688 5.570312 C 3.054688 5.582031 3.054688 5.59375 3.054688 5.605469 C 3.082031 5.636719 3.082031 5.636719 3.113281 5.664062 C 3.125 5.664062 3.136719 5.664062 3.148438 5.664062 C 3.148438 5.675781 3.148438 5.6875 3.148438 5.699219 C 3.175781 5.730469 3.175781 5.730469 3.207031 5.757812 C 3.21875 5.757812 3.230469 5.757812 3.242188 5.757812 C 3.242188 5.769531 3.242188 5.78125 3.242188 5.792969 C 3.296875 5.832031 3.296875 5.832031 3.335938 5.851562 C 3.335938 5.863281 3.335938 5.875 3.335938 5.886719 C 3.363281 5.917969 3.363281 5.917969 3.394531 5.945312 C 3.40625 5.945312 3.417969 5.945312 3.429688 5.945312 C 3.429688 5.957031 3.429688 5.96875 3.429688 5.980469 C 3.460938 6.007812 3.460938 6.007812 3.496094 6.039062 C 3.5625 6.089844 3.5625 6.089844 3.582031 6.132812 C 3.59375 6.132812 3.605469 6.132812 3.617188 6.132812 C 3.617188 6.144531 3.617188 6.15625 3.617188 6.167969 C 3.675781 6.230469 3.730469 6.28125 3.804688 6.320312 C 3.804688 6.332031 3.804688 6.34375 3.804688 6.355469 C 3.832031 6.386719 3.832031 6.386719 3.863281 6.414062 C 3.875 6.414062 3.886719 6.414062 3.898438 6.414062 C 3.898438 6.425781 3.898438 6.4375 3.898438 6.449219 C 3.925781 6.480469 3.925781 6.480469 3.957031 6.507812 C 3.96875 6.507812 3.980469 6.507812 3.992188 6.507812 C 3.992188 6.519531 3.992188 6.53125 3.992188 6.542969 C 4.019531 6.574219 4.019531 6.574219 4.050781 6.601562 C 4.0625 6.601562 4.074219 6.601562 4.085938 6.601562 C 4.085938 6.613281 4.085938 6.625 4.085938 6.636719 C 4.113281 6.667969 4.113281 6.667969 4.144531 6.695312 C 4.15625 6.695312 4.167969 6.695312 4.179688 6.695312 C 4.179688 6.707031 4.179688 6.71875 4.179688 6.730469 C 4.207031 6.761719 4.207031 6.761719 4.238281 6.789062 C 4.25 6.789062 4.261719 6.789062 4.273438 6.789062 C 4.273438 6.800781 4.273438 6.8125 4.273438 6.824219 C 4.304688 6.859375 4.304688 6.859375 4.347656 6.890625 C 4.359375 6.902344 4.375 6.914062 4.386719 6.925781 C 4.425781 6.960938 4.425781 6.960938 4.480469 6.976562 C 4.484375 6.984375 4.492188 6.996094 4.496094 7.007812 C 4.527344 7.070312 4.578125 7.117188 4.632812 7.164062 C 4.644531 7.164062 4.65625 7.164062 4.667969 7.164062 C 4.667969 7.175781 4.667969 7.1875 4.667969 7.199219 C 4.699219 7.230469 4.730469 7.261719 4.761719 7.292969 C 4.773438 7.304688 4.785156 7.316406 4.792969 7.328125 C 4.816406 7.355469 4.816406 7.355469 4.855469 7.351562 C 4.863281 7.367188 4.863281 7.367188 4.871094 7.386719 C 4.890625 7.429688 4.890625 7.429688 4.949219 7.445312 C 4.964844 7.46875 4.976562 7.492188 4.988281 7.519531 C 5.011719 7.550781 5.011719 7.550781 5.042969 7.574219 C 5.0625 7.574219 5.082031 7.574219 5.101562 7.574219 C 5.101562 7.59375 5.101562 7.613281 5.101562 7.632812 C 5.113281 7.632812 5.125 7.632812 5.136719 7.632812 C 5.136719 7.644531 5.136719 7.65625 5.136719 7.667969 C 5.15625 7.691406 5.179688 7.710938 5.199219 7.730469 C 5.238281 7.769531 5.277344 7.808594 5.3125 7.84375 C 5.34375 7.875 5.375 7.90625 5.402344 7.9375 C 5.425781 7.960938 5.425781 7.960938 5.449219 7.984375 C 5.472656 8.007812 5.472656 8.007812 5.496094 8.03125 C 5.507812 8.042969 5.519531 8.054688 5.535156 8.070312 C 5.566406 8.105469 5.566406 8.105469 5.605469 8.101562 C 5.609375 8.109375 5.617188 8.121094 5.621094 8.132812 C 5.644531 8.179688 5.675781 8.210938 5.710938 8.246094 C 5.726562 8.261719 5.738281 8.273438 5.75 8.289062 C 5.765625 8.300781 5.78125 8.316406 5.792969 8.328125 C 5.808594 8.34375 5.820312 8.359375 5.835938 8.371094 C 5.847656 8.386719 5.863281 8.398438 5.875 8.410156 C 5.886719 8.425781 5.898438 8.4375 5.914062 8.449219 C 5.941406 8.480469 5.941406 8.480469 5.980469 8.476562 C 5.984375 8.484375 5.988281 8.496094 5.992188 8.503906 C 6.027344 8.566406 6.074219 8.609375 6.121094 8.65625 C 6.132812 8.667969 6.140625 8.675781 6.148438 8.6875 C 6.199219 8.738281 6.199219 8.738281 6.261719 8.757812 C 6.269531 8.773438 6.269531 8.773438 6.277344 8.792969 C 6.296875 8.835938 6.296875 8.835938 6.355469 8.851562 C 6.371094 8.875 6.382812 8.898438 6.394531 8.925781 C 6.417969 8.957031 6.417969 8.957031 6.449219 8.980469 C 6.46875 8.980469 6.488281 8.980469 6.507812 8.980469 C 6.511719 9.007812 6.519531 9.03125 6.523438 9.054688 C 6.550781 9.0625 6.574219 9.070312 6.601562 9.074219 C 6.601562 9.09375 6.601562 9.113281 6.601562 9.132812 C 6.621094 9.136719 6.621094 9.136719 6.644531 9.144531 C 6.660156 9.152344 6.675781 9.160156 6.695312 9.167969 C 6.695312 9.179688 6.699219 9.191406 6.703125 9.203125 C 6.714844 9.253906 6.738281 9.273438 6.777344 9.304688 C 6.789062 9.3125 6.800781 9.324219 6.8125 9.335938 C 6.84375 9.359375 6.84375 9.359375 6.882812 9.355469 C 6.886719 9.367188 6.890625 9.378906 6.894531 9.386719 C 6.9375 9.460938 6.988281 9.515625 7.070312 9.542969 C 7.082031 9.582031 7.082031 9.582031 7.085938 9.617188 C 7.105469 9.617188 7.125 9.617188 7.144531 9.617188 C 7.144531 9.636719 7.144531 9.65625 7.144531 9.675781 C 7.15625 9.675781 7.167969 9.675781 7.179688 9.675781 C 7.179688 9.6875 7.179688 9.699219 7.179688 9.710938 C 7.191406 9.71875 7.203125 9.722656 7.214844 9.726562 C 7.261719 9.753906 7.289062 9.785156 7.324219 9.828125 C 7.34375 9.851562 7.367188 9.875 7.386719 9.898438 C 7.398438 9.898438 7.414062 9.898438 7.425781 9.898438 C 7.425781 9.914062 7.425781 9.925781 7.425781 9.9375 C 7.4375 9.9375 7.449219 9.9375 7.460938 9.9375 C 7.460938 9.957031 7.460938 9.976562 7.460938 9.992188 C 7.480469 10 7.5 10.007812 7.519531 10.011719 C 7.546875 10.042969 7.546875 10.042969 7.578125 10.082031 C 7.625 10.132812 7.671875 10.1875 7.722656 10.238281 C 7.730469 10.25 7.742188 10.257812 7.753906 10.269531 C 7.78125 10.296875 7.78125 10.296875 7.820312 10.292969 C 7.824219 10.304688 7.828125 10.316406 7.832031 10.324219 C 7.875 10.398438 7.925781 10.453125 8.007812 10.480469 C 8.019531 10.507812 8.03125 10.53125 8.042969 10.554688 C 8.074219 10.589844 8.105469 10.617188 8.136719 10.648438 C 8.148438 10.667969 8.164062 10.6875 8.175781 10.707031 C 8.1875 10.707031 8.199219 10.707031 8.210938 10.707031 C 8.210938 10.71875 8.210938 10.730469 8.210938 10.742188 C 8.230469 10.75 8.230469 10.75 8.246094 10.753906 C 8.300781 10.789062 8.324219 10.839844 8.363281 10.894531 C 8.398438 10.925781 8.4375 10.957031 8.476562 10.988281 C 8.480469 11 8.488281 11.011719 8.492188 11.023438 C 8.507812 11.03125 8.519531 11.035156 8.53125 11.042969 C 8.570312 11.0625 8.570312 11.0625 8.585938 11.117188 C 8.613281 11.140625 8.644531 11.164062 8.671875 11.1875 C 8.699219 11.210938 8.699219 11.210938 8.742188 11.265625 C 8.773438 11.3125 8.773438 11.3125 8.832031 11.324219 C 8.859375 11.351562 8.859375 11.351562 8.886719 11.386719 C 8.894531 11.398438 8.90625 11.410156 8.917969 11.421875 C 8.9375 11.449219 8.957031 11.476562 8.980469 11.503906 C 9.046875 11.582031 9.125 11.667969 9.226562 11.699219 C 9.238281 11.722656 9.25 11.75 9.261719 11.773438 C 9.3125 11.847656 9.347656 11.878906 9.429688 11.90625 C 9.429688 11.917969 9.429688 11.929688 9.429688 11.945312 C 9.445312 11.945312 9.457031 11.945312 9.46875 11.945312 C 9.476562 11.960938 9.480469 11.980469 9.488281 12 C 9.5 12 9.511719 12 9.523438 12 C 9.523438 12.011719 9.523438 12.023438 9.523438 12.039062 C 9.539062 12.039062 9.550781 12.039062 9.5625 12.039062 C 9.570312 12.054688 9.574219 12.074219 9.582031 12.09375 C 9.59375 12.09375 9.605469 12.09375 9.617188 12.09375 C 9.617188 12.105469 9.617188 12.117188 9.617188 12.132812 C 9.632812 12.132812 9.644531 12.132812 9.65625 12.132812 C 9.664062 12.148438 9.667969 12.167969 9.675781 12.1875 C 9.6875 12.1875 9.699219 12.1875 9.710938 12.1875 C 9.710938 12.199219 9.710938 12.210938 9.710938 12.226562 C 9.726562 12.226562 9.738281 12.226562 9.75 12.226562 C 9.757812 12.242188 9.761719 12.261719 9.769531 12.28125 C 9.78125 12.28125 9.792969 12.28125 9.804688 12.28125 C 9.804688 12.292969 9.804688 12.304688 9.804688 12.320312 C 9.820312 12.320312 9.832031 12.320312 9.84375 12.320312 C 9.851562 12.335938 9.855469 12.355469 9.863281 12.375 C 9.875 12.375 9.886719 12.375 9.898438 12.375 C 9.898438 12.386719 9.898438 12.398438 9.898438 12.414062 C 9.914062 12.414062 9.925781 12.414062 9.9375 12.414062 C 9.945312 12.429688 9.949219 12.449219 9.957031 12.46875 C 9.96875 12.46875 9.980469 12.46875 9.992188 12.46875 C 9.992188 12.480469 9.992188 12.492188 9.992188 12.507812 C 10.007812 12.507812 10.019531 12.507812 10.03125 12.507812 C 10.039062 12.523438 10.042969 12.542969 10.050781 12.5625 C 10.0625 12.5625 10.074219 12.5625 10.085938 12.5625 C 10.085938 12.574219 10.085938 12.585938 10.085938 12.601562 C 10.101562 12.601562 10.113281 12.601562 10.125 12.601562 C 10.132812 12.617188 10.136719 12.636719 10.144531 12.65625 C 10.15625 12.65625 10.167969 12.65625 10.179688 12.65625 C 10.179688 12.667969 10.179688 12.679688 10.179688 12.695312 C 10.195312 12.695312 10.207031 12.695312 10.21875 12.695312 C 10.226562 12.710938 10.230469 12.730469 10.238281 12.75 C 10.25 12.75 10.261719 12.75 10.273438 12.75 C 10.273438 12.761719 10.273438 12.773438 10.273438 12.789062 C 10.289062 12.789062 10.300781 12.789062 10.3125 12.789062 C 10.3125 12.800781 10.3125 12.8125 10.3125 12.824219 C 10.371094 12.882812 10.371094 12.882812 10.445312 12.898438 C 10.445312 12.910156 10.445312 12.921875 10.449219 12.933594 C 10.484375 13.039062 10.613281 13.109375 10.707031 13.164062 C 10.71875 13.175781 10.734375 13.191406 10.75 13.207031 C 10.890625 13.347656 11.089844 13.457031 11.289062 13.5 C 11.316406 13.507812 11.339844 13.519531 11.367188 13.527344 C 11.441406 13.550781 11.511719 13.566406 11.585938 13.574219 C 11.621094 13.582031 11.652344 13.585938 11.6875 13.59375 C 11.929688 13.648438 11.929688 13.648438 12.164062 13.613281 C 12.226562 13.585938 12.285156 13.585938 12.351562 13.582031 C 12.363281 13.582031 12.378906 13.582031 12.390625 13.578125 C 12.421875 13.578125 12.457031 13.578125 12.488281 13.574219 C 12.488281 13.570312 12.488281 13.5625 12.488281 13.554688 C 12.515625 13.546875 12.515625 13.546875 12.542969 13.542969 C 12.609375 13.523438 12.667969 13.5 12.730469 13.476562 C 12.769531 13.460938 12.769531 13.460938 12.839844 13.445312 C 12.902344 13.429688 12.902344 13.429688 12.925781 13.386719 C 12.929688 13.375 12.933594 13.363281 12.9375 13.351562 C 12.953125 13.351562 12.972656 13.351562 12.988281 13.355469 C 13.050781 13.355469 13.050781 13.355469 13.089844 13.316406 C 13.101562 13.300781 13.113281 13.289062 13.125 13.273438 C 13.144531 13.261719 13.164062 13.25 13.179688 13.238281 C 13.179688 13.226562 13.179688 13.210938 13.179688 13.199219 C 13.203125 13.199219 13.203125 13.199219 13.222656 13.195312 C 13.292969 13.175781 13.324219 13.140625 13.371094 13.085938 C 13.460938 12.996094 13.460938 12.996094 13.5 12.976562 C 13.5 12.960938 13.5 12.949219 13.5 12.9375 C 13.511719 12.9375 13.523438 12.9375 13.539062 12.9375 C 13.570312 12.914062 13.570312 12.914062 13.59375 12.882812 C 13.59375 12.867188 13.59375 12.855469 13.59375 12.84375 C 13.605469 12.84375 13.617188 12.84375 13.632812 12.84375 C 13.664062 12.820312 13.664062 12.820312 13.6875 12.789062 C 13.6875 12.773438 13.6875 12.761719 13.6875 12.75 C 13.699219 12.75 13.710938 12.75 13.726562 12.75 C 13.757812 12.726562 13.757812 12.726562 13.78125 12.695312 C 13.78125 12.679688 13.78125 12.667969 13.78125 12.65625 C 13.8125 12.648438 13.84375 12.644531 13.875 12.636719 C 13.875 12.613281 13.875 12.589844 13.875 12.5625 C 13.90625 12.554688 13.9375 12.550781 13.96875 12.542969 C 13.96875 12.519531 13.96875 12.496094 13.96875 12.46875 C 14 12.460938 14.03125 12.457031 14.0625 12.449219 C 14.070312 12.425781 14.074219 12.402344 14.082031 12.375 C 14.105469 12.367188 14.128906 12.363281 14.15625 12.355469 C 14.164062 12.332031 14.167969 12.308594 14.175781 12.28125 C 14.199219 12.273438 14.222656 12.269531 14.25 12.261719 C 14.257812 12.238281 14.261719 12.214844 14.269531 12.1875 C 14.292969 12.179688 14.316406 12.175781 14.34375 12.167969 C 14.351562 12.144531 14.355469 12.121094 14.363281 12.09375 C 14.386719 12.085938 14.410156 12.082031 14.4375 12.074219 C 14.445312 12.050781 14.449219 12.027344 14.457031 12 C 14.480469 11.992188 14.503906 11.988281 14.53125 11.980469 C 14.53125 11.957031 14.53125 11.933594 14.53125 11.90625 C 14.550781 11.90625 14.550781 11.90625 14.570312 11.90625 C 14.636719 11.882812 14.660156 11.847656 14.703125 11.796875 C 14.773438 11.710938 14.855469 11.636719 14.933594 11.554688 C 14.957031 11.535156 14.976562 11.515625 14.996094 11.496094 C 15.050781 11.441406 15.105469 11.386719 15.160156 11.332031 C 15.21875 11.269531 15.28125 11.210938 15.339844 11.152344 C 15.457031 11.035156 15.570312 10.917969 15.6875 10.800781 C 15.78125 10.707031 15.878906 10.613281 15.972656 10.519531 C 15.992188 10.5 15.992188 10.5 16.011719 10.476562 C 16.039062 10.449219 16.066406 10.421875 16.09375 10.394531 C 16.351562 10.140625 16.609375 9.882812 16.867188 9.625 C 17.085938 9.40625 17.304688 9.1875 17.527344 8.964844 C 17.78125 8.710938 18.039062 8.453125 18.292969 8.199219 C 18.320312 8.171875 18.347656 8.144531 18.375 8.117188 C 18.394531 8.097656 18.394531 8.097656 18.414062 8.074219 C 18.511719 7.980469 18.605469 7.886719 18.699219 7.792969 C 18.816406 7.675781 18.929688 7.5625 19.046875 7.445312 C 19.105469 7.386719 19.164062 7.328125 19.222656 7.269531 C 19.273438 7.214844 19.328125 7.164062 19.382812 7.109375 C 19.402344 7.089844 19.421875 7.070312 19.441406 7.050781 C 19.539062 6.953125 19.636719 6.859375 19.742188 6.769531 C 19.773438 6.742188 19.773438 6.742188 19.800781 6.710938 C 19.800781 6.699219 19.800781 6.6875 19.800781 6.675781 C 19.8125 6.675781 19.824219 6.675781 19.835938 6.675781 C 19.867188 6.648438 19.867188 6.648438 19.894531 6.617188 C 19.894531 6.605469 19.894531 6.59375 19.894531 6.582031 C 19.90625 6.582031 19.917969 6.582031 19.929688 6.582031 C 19.960938 6.550781 19.960938 6.550781 19.988281 6.515625 C 20.039062 6.453125 20.039062 6.453125 20.082031 6.429688 C 20.082031 6.417969 20.082031 6.40625 20.082031 6.394531 C 20.09375 6.394531 20.105469 6.394531 20.117188 6.394531 C 20.148438 6.367188 20.148438 6.367188 20.175781 6.335938 C 20.175781 6.324219 20.175781 6.3125 20.175781 6.300781 C 20.1875 6.300781 20.199219 6.300781 20.210938 6.300781 C 20.238281 6.273438 20.238281 6.273438 20.261719 6.242188 C 20.3125 6.179688 20.367188 6.128906 20.429688 6.078125 C 20.441406 6.070312 20.449219 6.0625 20.457031 6.054688 C 20.457031 6.042969 20.457031 6.03125 20.457031 6.019531 C 20.46875 6.019531 20.480469 6.019531 20.492188 6.019531 C 20.523438 5.988281 20.523438 5.988281 20.550781 5.953125 C 20.601562 5.890625 20.601562 5.890625 20.644531 5.867188 C 20.644531 5.855469 20.644531 5.84375 20.644531 5.832031 C 20.65625 5.832031 20.667969 5.832031 20.679688 5.832031 C 20.710938 5.800781 20.710938 5.800781 20.742188 5.761719 C 20.800781 5.695312 20.855469 5.640625 20.925781 5.585938 C 20.957031 5.554688 20.988281 5.527344 21.019531 5.492188 C 21.066406 5.445312 21.117188 5.398438 21.164062 5.347656 C 21.210938 5.3125 21.210938 5.3125 21.207031 5.269531 C 21.21875 5.269531 21.230469 5.269531 21.242188 5.269531 C 21.273438 5.242188 21.273438 5.242188 21.300781 5.210938 C 21.300781 5.199219 21.300781 5.1875 21.300781 5.175781 C 21.3125 5.175781 21.324219 5.175781 21.335938 5.175781 C 21.367188 5.148438 21.367188 5.148438 21.394531 5.117188 C 21.394531 5.105469 21.394531 5.09375 21.394531 5.082031 C 21.414062 5.085938 21.429688 5.09375 21.449219 5.101562 C 21.492188 5.050781 21.492188 5.050781 21.507812 4.988281 C 21.429688 4.949219 21.367188 4.945312 21.28125 4.945312 C 21.261719 4.945312 21.261719 4.945312 21.238281 4.945312 C 21.195312 4.945312 21.152344 4.945312 21.105469 4.945312 C 21.074219 4.945312 21.042969 4.945312 21.007812 4.945312 C 20.917969 4.945312 20.832031 4.945312 20.742188 4.945312 C 20.644531 4.945312 20.546875 4.945312 20.449219 4.945312 C 20.28125 4.945312 20.109375 4.945312 19.941406 4.945312 C 19.6875 4.945312 19.433594 4.945312 19.179688 4.945312 C 18.714844 4.945312 18.25 4.945312 17.785156 4.945312 C 17.71875 4.945312 17.652344 4.945312 17.589844 4.945312 C 17.570312 4.945312 17.570312 4.945312 17.546875 4.945312 C 17.257812 4.945312 16.96875 4.945312 16.679688 4.945312 C 16.613281 4.945312 16.546875 4.945312 16.480469 4.945312 C 16.453125 4.945312 16.425781 4.945312 16.402344 4.945312 C 16.386719 4.945312 16.375 4.945312 16.359375 4.945312 C 16.335938 4.945312 16.308594 4.945312 16.28125 4.945312 C 15.527344 4.945312 14.769531 4.945312 14.015625 4.945312 C 14 4.945312 13.988281 4.945312 13.972656 4.945312 C 13.816406 4.945312 13.660156 4.945312 13.503906 4.945312 C 13.492188 4.945312 13.476562 4.945312 13.460938 4.945312 C 13.375 4.945312 13.375 4.945312 13.289062 4.945312 C 12.390625 4.945312 11.488281 4.945312 10.585938 4.945312 C 10.359375 4.945312 10.132812 4.945312 9.90625 4.945312 C 9.890625 4.945312 9.878906 4.945312 9.863281 4.945312 C 9.433594 4.941406 9 4.941406 8.570312 4.941406 C 8.550781 4.941406 8.550781 4.941406 8.527344 4.941406 C 8.230469 4.941406 7.933594 4.941406 7.636719 4.941406 C 7.53125 4.941406 7.425781 4.941406 7.320312 4.941406 C 7.292969 4.941406 7.265625 4.941406 7.242188 4.941406 C 6.820312 4.941406 6.398438 4.941406 5.976562 4.941406 C 5.539062 4.941406 5.105469 4.941406 4.667969 4.941406 C 4.417969 4.941406 4.164062 4.941406 3.914062 4.941406 C 3.746094 4.941406 3.578125 4.941406 3.410156 4.941406 C 3.3125 4.941406 3.21875 4.941406 3.121094 4.941406 C 3.035156 4.941406 2.949219 4.941406 2.863281 4.941406 C 2.832031 4.941406 2.800781 4.941406 2.769531 4.941406 C 2.726562 4.941406 2.683594 4.941406 2.640625 4.941406 C 2.605469 4.941406 2.605469 4.941406 2.570312 4.941406 C 2.511719 4.945312 2.511719 4.945312 2.476562 4.976562 Z M 1.425781 6.019531 C 1.394531 6.074219 1.382812 6.113281 1.382812 6.179688 C 1.382812 6.195312 1.382812 6.210938 1.382812 6.230469 C 1.382812 6.25 1.382812 6.265625 1.382812 6.285156 C 1.382812 6.308594 1.382812 6.328125 1.382812 6.347656 C 1.382812 6.414062 1.382812 6.484375 1.382812 6.550781 C 1.382812 6.597656 1.382812 6.648438 1.382812 6.695312 C 1.382812 6.800781 1.382812 6.90625 1.382812 7.015625 C 1.382812 7.171875 1.382812 7.328125 1.382812 7.488281 C 1.382812 7.769531 1.382812 8.050781 1.382812 8.332031 C 1.382812 8.578125 1.382812 8.824219 1.382812 9.070312 C 1.382812 9.085938 1.382812 9.105469 1.382812 9.121094 C 1.382812 9.1875 1.382812 9.253906 1.382812 9.320312 C 1.382812 9.941406 1.382812 10.5625 1.382812 11.1875 C 1.382812 11.738281 1.382812 12.292969 1.382812 12.84375 C 1.382812 13.46875 1.382812 14.085938 1.382812 14.707031 C 1.382812 14.773438 1.382812 14.839844 1.382812 14.90625 C 1.382812 14.921875 1.382812 14.941406 1.382812 14.957031 C 1.382812 15.203125 1.382812 15.449219 1.382812 15.695312 C 1.382812 15.976562 1.382812 16.257812 1.382812 16.535156 C 1.382812 16.691406 1.382812 16.847656 1.382812 17.007812 C 1.382812 17.125 1.382812 17.238281 1.382812 17.355469 C 1.382812 17.40625 1.382812 17.453125 1.382812 17.5 C 1.382812 17.5625 1.382812 17.628906 1.382812 17.691406 C 1.382812 17.710938 1.382812 17.730469 1.382812 17.75 C 1.382812 17.835938 1.382812 17.902344 1.425781 17.980469 C 1.550781 17.878906 1.667969 17.761719 1.78125 17.644531 C 1.804688 17.621094 1.828125 17.597656 1.851562 17.578125 C 1.914062 17.515625 1.976562 17.453125 2.039062 17.386719 C 2.105469 17.320312 2.175781 17.253906 2.242188 17.183594 C 2.359375 17.066406 2.476562 16.949219 2.59375 16.832031 C 2.761719 16.664062 2.933594 16.492188 3.101562 16.324219 C 3.378906 16.046875 3.652344 15.773438 3.925781 15.496094 C 3.945312 15.480469 3.960938 15.464844 3.976562 15.449219 C 4.09375 15.332031 4.210938 15.214844 4.328125 15.097656 C 4.460938 14.964844 4.59375 14.828125 4.730469 14.695312 C 4.753906 14.671875 4.753906 14.671875 4.777344 14.644531 C 5.054688 14.371094 5.328125 14.097656 5.601562 13.824219 C 5.769531 13.652344 5.941406 13.484375 6.109375 13.316406 C 6.226562 13.199219 6.339844 13.082031 6.457031 12.96875 C 6.523438 12.898438 6.589844 12.832031 6.65625 12.765625 C 6.71875 12.703125 6.777344 12.644531 6.839844 12.582031 C 6.863281 12.558594 6.882812 12.539062 6.90625 12.515625 C 6.9375 12.484375 6.964844 12.457031 6.996094 12.425781 C 7.011719 12.410156 7.03125 12.390625 7.046875 12.375 C 7.085938 12.335938 7.085938 12.335938 7.125 12.320312 C 7.125 12.304688 7.125 12.292969 7.125 12.28125 C 7.136719 12.28125 7.148438 12.28125 7.164062 12.28125 C 7.195312 12.257812 7.195312 12.257812 7.21875 12.226562 C 7.21875 12.210938 7.21875 12.199219 7.21875 12.1875 C 7.230469 12.1875 7.242188 12.1875 7.257812 12.1875 C 7.289062 12.164062 7.289062 12.164062 7.3125 12.132812 C 7.3125 12.117188 7.3125 12.105469 7.3125 12.09375 C 7.324219 12.09375 7.335938 12.09375 7.351562 12.09375 C 7.355469 12.082031 7.363281 12.070312 7.367188 12.054688 C 7.40625 12.042969 7.40625 12.042969 7.445312 12.039062 C 7.4375 12 7.4375 12 7.425781 11.960938 C 7.40625 11.957031 7.386719 11.949219 7.367188 11.945312 C 7.355469 11.917969 7.34375 11.894531 7.332031 11.867188 C 7.304688 11.835938 7.304688 11.835938 7.277344 11.808594 C 7.265625 11.796875 7.253906 11.789062 7.242188 11.777344 C 7.230469 11.765625 7.222656 11.753906 7.210938 11.742188 C 7.199219 11.730469 7.1875 11.722656 7.175781 11.710938 C 7.117188 11.652344 7.117188 11.652344 7.050781 11.605469 C 7.023438 11.582031 7 11.554688 6.976562 11.53125 C 6.960938 11.515625 6.945312 11.5 6.929688 11.484375 C 6.882812 11.4375 6.835938 11.390625 6.789062 11.34375 C 6.773438 11.328125 6.753906 11.3125 6.738281 11.296875 C 6.695312 11.253906 6.65625 11.207031 6.617188 11.15625 C 6.570312 11.105469 6.570312 11.105469 6.523438 11.0625 C 6.511719 11.0625 6.5 11.0625 6.488281 11.0625 C 6.484375 11.050781 6.476562 11.039062 6.472656 11.027344 C 6.449219 10.980469 6.449219 10.980469 6.394531 10.949219 C 6.367188 10.925781 6.34375 10.898438 6.320312 10.875 C 6.304688 10.859375 6.289062 10.84375 6.273438 10.828125 C 6.226562 10.78125 6.179688 10.734375 6.132812 10.6875 C 6.105469 10.664062 6.105469 10.664062 6.078125 10.636719 C 6.039062 10.59375 6.039062 10.59375 6.019531 10.554688 C 6.003906 10.546875 5.988281 10.539062 5.976562 10.53125 C 5.910156 10.488281 5.867188 10.4375 5.832031 10.367188 C 5.8125 10.367188 5.792969 10.367188 5.773438 10.367188 C 5.769531 10.351562 5.761719 10.332031 5.757812 10.3125 C 5.75 10.300781 5.742188 10.289062 5.738281 10.273438 C 5.71875 10.273438 5.699219 10.273438 5.679688 10.273438 C 5.675781 10.257812 5.667969 10.238281 5.664062 10.21875 C 5.65625 10.207031 5.648438 10.195312 5.644531 10.179688 C 5.625 10.179688 5.605469 10.179688 5.585938 10.179688 C 5.582031 10.15625 5.574219 10.132812 5.570312 10.105469 C 5.542969 10.101562 5.519531 10.09375 5.492188 10.085938 C 5.492188 10.070312 5.492188 10.050781 5.492188 10.03125 C 5.480469 10.03125 5.46875 10.03125 5.457031 10.03125 C 5.457031 10.019531 5.457031 10.007812 5.457031 9.992188 C 5.4375 9.992188 5.417969 9.992188 5.398438 9.992188 C 5.394531 9.976562 5.386719 9.957031 5.382812 9.9375 C 5.363281 9.925781 5.34375 9.914062 5.324219 9.898438 C 5.320312 9.882812 5.3125 9.863281 5.304688 9.84375 C 5.289062 9.84375 5.269531 9.84375 5.25 9.84375 C 5.25 9.832031 5.25 9.820312 5.25 9.804688 C 5.238281 9.804688 5.226562 9.804688 5.210938 9.804688 C 5.210938 9.789062 5.210938 9.769531 5.210938 9.75 C 5.199219 9.75 5.1875 9.75 5.175781 9.75 C 5.175781 9.738281 5.175781 9.726562 5.175781 9.710938 C 5.15625 9.710938 5.136719 9.710938 5.117188 9.710938 C 5.101562 9.664062 5.101562 9.664062 5.082031 9.617188 C 5.0625 9.617188 5.042969 9.617188 5.023438 9.617188 C 5.023438 9.605469 5.023438 9.59375 5.023438 9.582031 C 5.011719 9.582031 5 9.582031 4.988281 9.582031 C 4.988281 9.5625 4.988281 9.542969 4.988281 9.523438 C 4.96875 9.523438 4.949219 9.523438 4.929688 9.523438 C 4.929688 9.507812 4.929688 9.488281 4.929688 9.46875 C 4.917969 9.46875 4.90625 9.46875 4.894531 9.46875 C 4.894531 9.457031 4.894531 9.445312 4.894531 9.429688 C 4.875 9.429688 4.855469 9.429688 4.835938 9.429688 C 4.835938 9.417969 4.835938 9.40625 4.835938 9.394531 C 4.824219 9.394531 4.8125 9.394531 4.800781 9.394531 C 4.800781 9.375 4.800781 9.355469 4.800781 9.335938 C 4.78125 9.335938 4.761719 9.335938 4.742188 9.335938 C 4.742188 9.324219 4.742188 9.3125 4.742188 9.300781 C 4.730469 9.300781 4.71875 9.300781 4.707031 9.300781 C 4.707031 9.28125 4.707031 9.261719 4.707031 9.242188 C 4.6875 9.242188 4.667969 9.242188 4.648438 9.242188 C 4.648438 9.230469 4.648438 9.21875 4.648438 9.207031 C 4.625 9.175781 4.625 9.175781 4.59375 9.148438 C 4.582031 9.148438 4.570312 9.148438 4.554688 9.148438 C 4.554688 9.136719 4.554688 9.125 4.554688 9.113281 C 4.53125 9.082031 4.53125 9.082031 4.5 9.054688 C 4.488281 9.054688 4.476562 9.054688 4.460938 9.054688 C 4.460938 9.042969 4.460938 9.03125 4.460938 9.019531 C 4.4375 8.988281 4.4375 8.988281 4.40625 8.960938 C 4.394531 8.960938 4.382812 8.960938 4.367188 8.960938 C 4.367188 8.953125 4.367188 8.941406 4.367188 8.929688 C 4.34375 8.867188 4.292969 8.847656 4.238281 8.8125 C 4.230469 8.800781 4.226562 8.789062 4.21875 8.773438 C 4.207031 8.773438 4.195312 8.773438 4.179688 8.773438 C 4.175781 8.75 4.167969 8.726562 4.164062 8.699219 C 4.136719 8.695312 4.113281 8.6875 4.085938 8.679688 C 4.085938 8.667969 4.085938 8.65625 4.085938 8.644531 C 4.0625 8.613281 4.0625 8.613281 4.03125 8.585938 C 4.019531 8.585938 4.007812 8.585938 3.992188 8.585938 C 3.992188 8.574219 3.992188 8.5625 3.992188 8.550781 C 3.96875 8.519531 3.96875 8.519531 3.9375 8.492188 C 3.925781 8.492188 3.914062 8.492188 3.898438 8.492188 C 3.898438 8.480469 3.898438 8.46875 3.898438 8.457031 C 3.871094 8.429688 3.871094 8.429688 3.835938 8.398438 C 3.769531 8.347656 3.769531 8.347656 3.75 8.304688 C 3.738281 8.304688 3.726562 8.304688 3.710938 8.304688 C 3.710938 8.292969 3.710938 8.28125 3.710938 8.269531 C 3.6875 8.238281 3.6875 8.238281 3.65625 8.210938 C 3.644531 8.210938 3.632812 8.210938 3.617188 8.210938 C 3.609375 8.195312 3.609375 8.195312 3.605469 8.175781 C 3.582031 8.132812 3.582031 8.132812 3.523438 8.117188 C 3.523438 8.105469 3.523438 8.09375 3.523438 8.082031 C 3.5 8.050781 3.5 8.050781 3.46875 8.023438 C 3.457031 8.023438 3.445312 8.023438 3.429688 8.023438 C 3.429688 8.011719 3.429688 8 3.429688 7.988281 C 3.402344 7.960938 3.402344 7.960938 3.367188 7.929688 C 3.300781 7.878906 3.300781 7.878906 3.28125 7.835938 C 3.269531 7.835938 3.257812 7.835938 3.242188 7.835938 C 3.234375 7.820312 3.234375 7.820312 3.230469 7.800781 C 3.207031 7.757812 3.207031 7.757812 3.148438 7.742188 C 3.148438 7.730469 3.148438 7.71875 3.148438 7.707031 C 3.125 7.675781 3.125 7.675781 3.09375 7.648438 C 3.082031 7.648438 3.070312 7.648438 3.054688 7.648438 C 3.054688 7.636719 3.054688 7.625 3.054688 7.613281 C 3.03125 7.582031 3.03125 7.582031 3 7.554688 C 2.988281 7.554688 2.976562 7.554688 2.960938 7.554688 C 2.960938 7.542969 2.960938 7.53125 2.960938 7.519531 C 2.9375 7.492188 2.9375 7.492188 2.902344 7.464844 C 2.84375 7.417969 2.789062 7.367188 2.738281 7.3125 C 2.675781 7.25 2.609375 7.1875 2.546875 7.121094 C 2.519531 7.09375 2.492188 7.066406 2.464844 7.039062 C 2.445312 7.023438 2.425781 7.003906 2.40625 6.984375 C 2.378906 6.957031 2.351562 6.929688 2.324219 6.902344 C 2.308594 6.886719 2.292969 6.871094 2.277344 6.851562 C 2.234375 6.808594 2.195312 6.761719 2.15625 6.710938 C 2.132812 6.691406 2.109375 6.667969 2.082031 6.648438 C 1.929688 6.515625 1.929688 6.515625 1.882812 6.4375 C 1.859375 6.386719 1.859375 6.386719 1.800781 6.375 C 1.777344 6.355469 1.757812 6.332031 1.734375 6.3125 C 1.710938 6.289062 1.6875 6.261719 1.664062 6.238281 C 1.648438 6.226562 1.632812 6.210938 1.617188 6.195312 C 1.601562 6.179688 1.589844 6.167969 1.574219 6.152344 C 1.539062 6.113281 1.539062 6.113281 1.519531 6.054688 C 1.472656 6.035156 1.472656 6.035156 1.425781 6.019531 Z M 22.445312 6.039062 C 22.449219 6.046875 22.453125 6.058594 22.457031 6.070312 C 22.460938 6.113281 22.460938 6.113281 22.425781 6.160156 C 22.410156 6.175781 22.394531 6.191406 22.375 6.207031 C 22.351562 6.230469 22.351562 6.230469 22.324219 6.257812 C 22.273438 6.300781 22.273438 6.300781 22.230469 6.324219 C 22.171875 6.359375 22.128906 6.402344 22.082031 6.449219 C 22.074219 6.460938 22.0625 6.46875 22.054688 6.480469 C 22.019531 6.511719 21.988281 6.542969 21.957031 6.578125 C 21.933594 6.597656 21.910156 6.621094 21.886719 6.644531 C 21.824219 6.710938 21.757812 6.773438 21.695312 6.835938 C 21.625 6.90625 21.558594 6.976562 21.488281 7.042969 C 21.351562 7.179688 21.21875 7.3125 21.082031 7.449219 C 20.972656 7.558594 20.863281 7.667969 20.753906 7.777344 C 20.738281 7.792969 20.722656 7.808594 20.707031 7.824219 C 20.675781 7.855469 20.644531 7.886719 20.613281 7.921875 C 20.3125 8.21875 20.015625 8.515625 19.71875 8.8125 C 19.449219 9.082031 19.175781 9.355469 18.902344 9.628906 C 18.625 9.90625 18.34375 10.1875 18.066406 10.464844 C 17.910156 10.621094 17.753906 10.777344 17.59375 10.933594 C 17.460938 11.070312 17.328125 11.203125 17.195312 11.335938 C 17.125 11.402344 17.058594 11.472656 16.992188 11.539062 C 16.929688 11.601562 16.867188 11.664062 16.804688 11.726562 C 16.78125 11.75 16.757812 11.773438 16.734375 11.792969 C 16.703125 11.824219 16.675781 11.855469 16.644531 11.886719 C 16.625 11.902344 16.609375 11.921875 16.59375 11.9375 C 16.550781 11.980469 16.550781 11.980469 16.554688 12.039062 C 16.585938 12.070312 16.585938 12.070312 16.625 12.101562 C 16.703125 12.167969 16.777344 12.238281 16.847656 12.3125 C 16.890625 12.355469 16.890625 12.355469 16.933594 12.375 C 16.96875 12.394531 16.96875 12.394531 16.984375 12.425781 C 17.011719 12.476562 17.039062 12.503906 17.078125 12.542969 C 17.089844 12.554688 17.101562 12.566406 17.117188 12.578125 C 17.128906 12.59375 17.140625 12.605469 17.15625 12.617188 C 17.207031 12.671875 17.257812 12.722656 17.3125 12.773438 C 17.332031 12.796875 17.355469 12.816406 17.375 12.839844 C 17.386719 12.851562 17.398438 12.859375 17.410156 12.871094 C 17.464844 12.929688 17.464844 12.929688 17.53125 12.976562 C 17.574219 13.015625 17.609375 13.054688 17.644531 13.101562 C 17.664062 13.121094 17.664062 13.121094 17.679688 13.144531 C 17.695312 13.144531 17.707031 13.144531 17.71875 13.144531 C 17.722656 13.152344 17.726562 13.164062 17.730469 13.175781 C 17.765625 13.234375 17.8125 13.277344 17.859375 13.324219 C 17.867188 13.335938 17.878906 13.34375 17.886719 13.355469 C 17.9375 13.40625 17.9375 13.40625 18 13.445312 C 18.019531 13.464844 18.035156 13.484375 18.054688 13.503906 C 18.117188 13.582031 18.117188 13.582031 18.1875 13.648438 C 18.207031 13.648438 18.226562 13.648438 18.242188 13.648438 C 18.253906 13.679688 18.253906 13.679688 18.261719 13.707031 C 18.292969 13.738281 18.324219 13.769531 18.355469 13.800781 C 18.386719 13.832031 18.417969 13.863281 18.449219 13.894531 C 18.464844 13.910156 18.480469 13.925781 18.496094 13.941406 C 18.542969 13.988281 18.542969 13.988281 18.585938 14.039062 C 18.597656 14.054688 18.605469 14.066406 18.617188 14.082031 C 18.632812 14.082031 18.644531 14.082031 18.65625 14.082031 C 18.660156 14.09375 18.667969 14.105469 18.671875 14.117188 C 18.691406 14.160156 18.691406 14.160156 18.75 14.195312 C 18.789062 14.230469 18.824219 14.269531 18.859375 14.316406 C 18.890625 14.351562 18.921875 14.382812 18.960938 14.414062 C 19.011719 14.457031 19.011719 14.457031 19.03125 14.492188 C 19.046875 14.503906 19.0625 14.511719 19.078125 14.523438 C 19.101562 14.535156 19.101562 14.535156 19.125 14.550781 C 19.125 14.5625 19.125 14.574219 19.125 14.585938 C 19.167969 14.636719 19.167969 14.636719 19.21875 14.679688 C 19.238281 14.679688 19.257812 14.679688 19.273438 14.679688 C 19.28125 14.699219 19.289062 14.71875 19.292969 14.738281 C 19.300781 14.75 19.304688 14.761719 19.3125 14.773438 C 19.332031 14.773438 19.351562 14.773438 19.367188 14.773438 C 19.375 14.800781 19.382812 14.824219 19.386719 14.851562 C 19.414062 14.855469 19.4375 14.863281 19.460938 14.867188 C 19.460938 14.886719 19.460938 14.90625 19.460938 14.925781 C 19.476562 14.925781 19.488281 14.925781 19.5 14.925781 C 19.5 14.9375 19.5 14.949219 19.5 14.960938 C 19.519531 14.960938 19.539062 14.960938 19.554688 14.960938 C 19.5625 14.980469 19.570312 15 19.574219 15.019531 C 19.609375 15.058594 19.609375 15.058594 19.648438 15.09375 C 19.664062 15.09375 19.675781 15.09375 19.6875 15.09375 C 19.6875 15.113281 19.6875 15.132812 19.6875 15.148438 C 19.707031 15.148438 19.726562 15.148438 19.742188 15.148438 C 19.757812 15.179688 19.769531 15.210938 19.78125 15.242188 C 19.800781 15.242188 19.820312 15.242188 19.835938 15.242188 C 19.835938 15.257812 19.835938 15.269531 19.835938 15.28125 C 19.851562 15.28125 19.863281 15.28125 19.875 15.28125 C 19.875 15.300781 19.875 15.320312 19.875 15.335938 C 19.894531 15.335938 19.914062 15.335938 19.929688 15.335938 C 19.929688 15.351562 19.929688 15.363281 19.929688 15.375 C 19.945312 15.375 19.957031 15.375 19.96875 15.375 C 19.96875 15.394531 19.96875 15.414062 19.96875 15.429688 C 20 15.449219 20.03125 15.46875 20.0625 15.488281 C 20.070312 15.5 20.074219 15.511719 20.082031 15.523438 C 20.09375 15.523438 20.105469 15.523438 20.117188 15.523438 C 20.125 15.535156 20.128906 15.550781 20.132812 15.5625 C 20.152344 15.605469 20.152344 15.605469 20.210938 15.617188 C 20.210938 15.632812 20.210938 15.644531 20.210938 15.65625 C 20.238281 15.6875 20.238281 15.6875 20.269531 15.710938 C 20.28125 15.710938 20.292969 15.710938 20.304688 15.710938 C 20.304688 15.726562 20.304688 15.738281 20.304688 15.75 C 20.339844 15.78125 20.339844 15.78125 20.378906 15.8125 C 20.4375 15.863281 20.472656 15.90625 20.511719 15.976562 C 20.550781 15.992188 20.550781 15.992188 20.585938 15.992188 C 20.585938 16.007812 20.585938 16.019531 20.585938 16.03125 C 20.613281 16.0625 20.613281 16.0625 20.644531 16.085938 C 20.65625 16.085938 20.667969 16.085938 20.679688 16.085938 C 20.679688 16.101562 20.679688 16.113281 20.679688 16.125 C 20.707031 16.15625 20.707031 16.15625 20.738281 16.179688 C 20.75 16.179688 20.761719 16.179688 20.773438 16.179688 C 20.773438 16.195312 20.773438 16.207031 20.773438 16.21875 C 20.804688 16.246094 20.804688 16.246094 20.839844 16.273438 C 20.90625 16.328125 20.90625 16.328125 20.925781 16.367188 C 20.9375 16.367188 20.949219 16.367188 20.960938 16.367188 C 20.960938 16.382812 20.960938 16.394531 20.960938 16.40625 C 20.988281 16.4375 20.988281 16.4375 21.019531 16.460938 C 21.03125 16.460938 21.042969 16.460938 21.054688 16.460938 C 21.054688 16.476562 21.054688 16.488281 21.054688 16.5 C 21.082031 16.53125 21.082031 16.53125 21.113281 16.554688 C 21.125 16.554688 21.136719 16.554688 21.148438 16.554688 C 21.148438 16.570312 21.148438 16.582031 21.148438 16.59375 C 21.179688 16.621094 21.179688 16.621094 21.214844 16.648438 C 21.28125 16.703125 21.28125 16.703125 21.300781 16.742188 C 21.3125 16.742188 21.324219 16.742188 21.335938 16.742188 C 21.335938 16.757812 21.335938 16.769531 21.335938 16.78125 C 21.363281 16.8125 21.363281 16.8125 21.394531 16.835938 C 21.40625 16.835938 21.417969 16.835938 21.429688 16.835938 C 21.429688 16.851562 21.429688 16.863281 21.429688 16.875 C 21.460938 16.902344 21.460938 16.902344 21.496094 16.929688 C 21.5625 16.984375 21.5625 16.984375 21.582031 17.023438 C 21.59375 17.023438 21.605469 17.023438 21.617188 17.023438 C 21.617188 17.039062 21.617188 17.050781 21.617188 17.0625 C 21.648438 17.09375 21.648438 17.09375 21.6875 17.125 C 21.75 17.175781 21.804688 17.230469 21.863281 17.289062 C 21.890625 17.316406 21.917969 17.34375 21.945312 17.371094 C 21.960938 17.386719 21.976562 17.402344 21.992188 17.417969 C 22.019531 17.445312 22.050781 17.476562 22.082031 17.503906 C 22.128906 17.554688 22.171875 17.605469 22.210938 17.65625 C 22.222656 17.664062 22.230469 17.671875 22.238281 17.679688 C 22.25 17.679688 22.261719 17.679688 22.273438 17.679688 C 22.273438 17.695312 22.273438 17.707031 22.273438 17.71875 C 22.300781 17.75 22.300781 17.75 22.332031 17.773438 C 22.34375 17.773438 22.355469 17.773438 22.367188 17.773438 C 22.367188 17.789062 22.367188 17.800781 22.367188 17.8125 C 22.394531 17.84375 22.394531 17.84375 22.425781 17.867188 C 22.4375 17.867188 22.449219 17.867188 22.460938 17.867188 C 22.460938 17.882812 22.460938 17.894531 22.460938 17.90625 C 22.5 17.929688 22.535156 17.957031 22.574219 17.980469 C 22.574219 14.046875 22.574219 10.109375 22.574219 6.054688 C 22.503906 6.035156 22.503906 6.035156 22.445312 6.039062 Z M 8.4375 13.050781 C 8.4375 13.0625 8.4375 13.074219 8.4375 13.085938 C 8.425781 13.085938 8.414062 13.085938 8.398438 13.085938 C 8.398438 13.101562 8.398438 13.113281 8.398438 13.125 C 8.371094 13.132812 8.371094 13.132812 8.34375 13.144531 C 8.34375 13.15625 8.34375 13.167969 8.34375 13.179688 C 8.332031 13.179688 8.320312 13.179688 8.304688 13.179688 C 8.304688 13.195312 8.304688 13.207031 8.304688 13.21875 C 8.277344 13.226562 8.277344 13.226562 8.25 13.238281 C 8.25 13.25 8.25 13.261719 8.25 13.273438 C 8.238281 13.273438 8.226562 13.273438 8.210938 13.273438 C 8.210938 13.289062 8.210938 13.300781 8.210938 13.3125 C 8.183594 13.320312 8.183594 13.320312 8.15625 13.332031 C 8.15625 13.34375 8.15625 13.355469 8.15625 13.367188 C 8.144531 13.367188 8.132812 13.367188 8.117188 13.367188 C 8.117188 13.382812 8.117188 13.394531 8.117188 13.40625 C 8.101562 13.414062 8.082031 13.417969 8.0625 13.425781 C 8.0625 13.4375 8.0625 13.449219 8.0625 13.460938 C 8.042969 13.46875 8.042969 13.46875 8.019531 13.476562 C 7.964844 13.5 7.9375 13.523438 7.894531 13.566406 C 7.875 13.585938 7.875 13.585938 7.851562 13.609375 C 7.832031 13.632812 7.832031 13.632812 7.808594 13.65625 C 7.78125 13.679688 7.78125 13.679688 7.757812 13.703125 C 7.714844 13.75 7.667969 13.792969 7.625 13.839844 C 7.574219 13.886719 7.527344 13.9375 7.476562 13.984375 C 7.394531 14.070312 7.308594 14.152344 7.226562 14.238281 C 7.105469 14.359375 6.984375 14.480469 6.859375 14.601562 C 6.664062 14.800781 6.464844 15 6.269531 15.195312 C 6.078125 15.390625 5.886719 15.582031 5.695312 15.773438 C 5.683594 15.785156 5.671875 15.796875 5.65625 15.808594 C 5.53125 15.9375 5.402344 16.066406 5.273438 16.195312 C 5.261719 16.207031 5.25 16.21875 5.238281 16.230469 C 5.191406 16.277344 5.148438 16.320312 5.101562 16.367188 C 4.96875 16.5 4.835938 16.632812 4.703125 16.765625 C 4.621094 16.847656 4.539062 16.929688 4.453125 17.015625 C 4.40625 17.0625 4.359375 17.109375 4.3125 17.160156 C 4.257812 17.210938 4.207031 17.261719 4.15625 17.316406 C 4.140625 17.332031 4.125 17.347656 4.109375 17.363281 C 4.054688 17.417969 4 17.472656 3.9375 17.519531 C 3.925781 17.53125 3.914062 17.539062 3.898438 17.550781 C 3.898438 17.5625 3.898438 17.574219 3.898438 17.585938 C 3.886719 17.585938 3.875 17.585938 3.863281 17.585938 C 3.832031 17.613281 3.832031 17.613281 3.804688 17.644531 C 3.804688 17.65625 3.804688 17.667969 3.804688 17.679688 C 3.792969 17.679688 3.78125 17.679688 3.769531 17.679688 C 3.738281 17.707031 3.738281 17.707031 3.710938 17.738281 C 3.710938 17.75 3.710938 17.761719 3.710938 17.773438 C 3.699219 17.773438 3.6875 17.773438 3.675781 17.773438 C 3.644531 17.800781 3.644531 17.800781 3.617188 17.832031 C 3.617188 17.84375 3.617188 17.855469 3.617188 17.867188 C 3.605469 17.867188 3.59375 17.867188 3.582031 17.867188 C 3.550781 17.894531 3.550781 17.894531 3.523438 17.925781 C 3.523438 17.9375 3.523438 17.949219 3.523438 17.960938 C 3.511719 17.960938 3.5 17.960938 3.488281 17.960938 C 3.457031 17.988281 3.457031 17.988281 3.429688 18.019531 C 3.429688 18.03125 3.429688 18.042969 3.429688 18.054688 C 3.417969 18.054688 3.40625 18.054688 3.394531 18.054688 C 3.363281 18.082031 3.363281 18.082031 3.335938 18.113281 C 3.335938 18.125 3.335938 18.136719 3.335938 18.148438 C 3.324219 18.148438 3.3125 18.148438 3.300781 18.148438 C 3.269531 18.175781 3.269531 18.175781 3.242188 18.207031 C 3.242188 18.21875 3.242188 18.230469 3.242188 18.242188 C 3.230469 18.242188 3.21875 18.242188 3.207031 18.242188 C 3.175781 18.269531 3.175781 18.269531 3.148438 18.300781 C 3.148438 18.3125 3.148438 18.324219 3.148438 18.335938 C 3.136719 18.335938 3.125 18.335938 3.113281 18.335938 C 3.082031 18.363281 3.082031 18.363281 3.054688 18.394531 C 3.054688 18.40625 3.054688 18.417969 3.054688 18.429688 C 3.042969 18.429688 3.03125 18.429688 3.019531 18.429688 C 2.988281 18.457031 2.988281 18.457031 2.960938 18.488281 C 2.960938 18.5 2.960938 18.511719 2.960938 18.523438 C 2.949219 18.523438 2.9375 18.523438 2.925781 18.523438 C 2.894531 18.550781 2.894531 18.550781 2.867188 18.582031 C 2.867188 18.59375 2.867188 18.605469 2.867188 18.617188 C 2.855469 18.617188 2.84375 18.617188 2.832031 18.617188 C 2.800781 18.644531 2.800781 18.644531 2.773438 18.675781 C 2.773438 18.6875 2.773438 18.699219 2.773438 18.710938 C 2.761719 18.710938 2.75 18.710938 2.738281 18.710938 C 2.707031 18.738281 2.707031 18.738281 2.679688 18.769531 C 2.679688 18.78125 2.679688 18.792969 2.679688 18.804688 C 2.667969 18.804688 2.65625 18.804688 2.644531 18.804688 C 2.613281 18.832031 2.613281 18.832031 2.585938 18.863281 C 2.585938 18.875 2.585938 18.886719 2.585938 18.898438 C 2.550781 18.894531 2.511719 18.886719 2.476562 18.882812 C 2.480469 18.925781 2.488281 18.96875 2.492188 19.011719 C 8.769531 19.011719 15.042969 19.011719 21.507812 19.011719 C 21.511719 18.957031 21.511719 18.957031 21.480469 18.925781 C 21.453125 18.894531 21.453125 18.894531 21.414062 18.898438 C 21.414062 18.886719 21.414062 18.875 21.414062 18.863281 C 21.386719 18.832031 21.386719 18.832031 21.355469 18.804688 C 21.34375 18.804688 21.332031 18.804688 21.320312 18.804688 C 21.3125 18.792969 21.304688 18.78125 21.300781 18.769531 C 21.25 18.695312 21.191406 18.644531 21.121094 18.585938 C 21.09375 18.5625 21.09375 18.5625 21.074219 18.523438 C 21.0625 18.523438 21.050781 18.523438 21.039062 18.523438 C 21.03125 18.511719 21.023438 18.5 21.019531 18.488281 C 20.957031 18.40625 20.957031 18.40625 20.886719 18.335938 C 20.875 18.335938 20.863281 18.335938 20.851562 18.335938 C 20.851562 18.324219 20.851562 18.3125 20.851562 18.300781 C 20.824219 18.269531 20.824219 18.269531 20.792969 18.242188 C 20.78125 18.242188 20.769531 18.242188 20.757812 18.242188 C 20.757812 18.230469 20.757812 18.21875 20.757812 18.207031 C 20.726562 18.179688 20.726562 18.179688 20.691406 18.148438 C 20.625 18.097656 20.625 18.097656 20.605469 18.054688 C 20.59375 18.054688 20.582031 18.054688 20.570312 18.054688 C 20.570312 18.042969 20.570312 18.03125 20.570312 18.019531 C 20.539062 17.996094 20.511719 17.972656 20.484375 17.949219 C 20.457031 17.925781 20.457031 17.925781 20.417969 17.867188 C 20.40625 17.867188 20.394531 17.867188 20.382812 17.867188 C 20.382812 17.855469 20.382812 17.84375 20.382812 17.832031 C 20.355469 17.800781 20.355469 17.800781 20.324219 17.773438 C 20.3125 17.773438 20.300781 17.773438 20.289062 17.773438 C 20.28125 17.761719 20.273438 17.75 20.269531 17.738281 C 20.257812 17.71875 20.242188 17.699219 20.230469 17.679688 C 20.21875 17.679688 20.207031 17.679688 20.195312 17.679688 C 20.195312 17.667969 20.195312 17.65625 20.195312 17.644531 C 20.167969 17.617188 20.167969 17.617188 20.132812 17.589844 C 20.054688 17.527344 19.984375 17.457031 19.914062 17.382812 C 19.898438 17.363281 19.878906 17.347656 19.863281 17.328125 C 19.851562 17.320312 19.84375 17.308594 19.835938 17.300781 C 19.8125 17.277344 19.785156 17.253906 19.761719 17.230469 C 19.75 17.230469 19.738281 17.230469 19.726562 17.230469 C 19.722656 17.222656 19.71875 17.210938 19.714844 17.199219 C 19.675781 17.140625 19.628906 17.089844 19.574219 17.042969 C 19.5625 17.042969 19.550781 17.042969 19.539062 17.042969 C 19.53125 17.03125 19.527344 17.019531 19.523438 17.007812 C 19.503906 16.960938 19.503906 16.960938 19.445312 16.949219 C 19.4375 16.9375 19.433594 16.925781 19.425781 16.917969 C 19.410156 16.871094 19.410156 16.871094 19.363281 16.84375 C 19.304688 16.796875 19.261719 16.742188 19.210938 16.6875 C 19.179688 16.648438 19.144531 16.609375 19.105469 16.574219 C 19.09375 16.574219 19.082031 16.574219 19.070312 16.574219 C 19.070312 16.5625 19.070312 16.550781 19.070312 16.539062 C 19.042969 16.507812 19.042969 16.507812 19.011719 16.480469 C 19 16.480469 18.988281 16.480469 18.976562 16.480469 C 18.96875 16.46875 18.964844 16.460938 18.960938 16.449219 C 18.933594 16.398438 18.902344 16.367188 18.863281 16.328125 C 18.851562 16.3125 18.835938 16.300781 18.824219 16.285156 C 18.789062 16.25 18.789062 16.25 18.730469 16.257812 C 18.730469 16.238281 18.730469 16.238281 18.726562 16.222656 C 18.707031 16.167969 18.679688 16.144531 18.636719 16.105469 C 18.625 16.105469 18.613281 16.105469 18.601562 16.105469 C 18.597656 16.097656 18.59375 16.085938 18.589844 16.074219 C 18.550781 16.015625 18.503906 15.964844 18.449219 15.917969 C 18.4375 15.917969 18.425781 15.917969 18.414062 15.917969 C 18.40625 15.90625 18.402344 15.898438 18.398438 15.886719 C 18.367188 15.832031 18.328125 15.804688 18.28125 15.769531 C 18.273438 15.757812 18.269531 15.742188 18.261719 15.730469 C 18.25 15.730469 18.238281 15.730469 18.226562 15.730469 C 18.21875 15.71875 18.214844 15.707031 18.210938 15.699219 C 18.183594 15.648438 18.15625 15.628906 18.113281 15.601562 C 18.101562 15.601562 18.085938 15.601562 18.074219 15.601562 C 18.074219 15.589844 18.070312 15.578125 18.070312 15.566406 C 18.054688 15.515625 18.03125 15.496094 17.992188 15.464844 C 17.980469 15.453125 17.96875 15.445312 17.957031 15.433594 C 17.925781 15.410156 17.925781 15.410156 17.886719 15.414062 C 17.882812 15.402344 17.878906 15.390625 17.875 15.378906 C 17.84375 15.328125 17.816406 15.285156 17.773438 15.242188 C 17.757812 15.242188 17.738281 15.242188 17.71875 15.242188 C 17.714844 15.230469 17.710938 15.214844 17.703125 15.199219 C 17.6875 15.148438 17.6875 15.148438 17.644531 15.132812 C 17.597656 15.109375 17.574219 15.078125 17.539062 15.039062 C 17.492188 14.984375 17.492188 14.984375 17.445312 14.933594 C 17.417969 14.90625 17.417969 14.90625 17.398438 14.867188 C 17.382812 14.863281 17.363281 14.855469 17.34375 14.851562 C 17.308594 14.8125 17.277344 14.773438 17.246094 14.734375 C 17.210938 14.699219 17.183594 14.683594 17.136719 14.664062 C 17.125 14.636719 17.113281 14.613281 17.101562 14.585938 C 17.035156 14.515625 17.035156 14.515625 16.949219 14.476562 C 16.9375 14.449219 16.925781 14.425781 16.914062 14.398438 C 16.859375 14.34375 16.816406 14.296875 16.742188 14.269531 C 16.742188 14.25 16.742188 14.230469 16.742188 14.210938 C 16.726562 14.203125 16.726562 14.203125 16.707031 14.199219 C 16.667969 14.175781 16.667969 14.175781 16.648438 14.117188 C 16.636719 14.113281 16.625 14.105469 16.613281 14.101562 C 16.574219 14.082031 16.574219 14.082031 16.554688 14.023438 C 16.527344 14 16.503906 13.976562 16.472656 13.957031 C 16.429688 13.917969 16.390625 13.878906 16.351562 13.835938 C 16.332031 13.820312 16.316406 13.804688 16.300781 13.789062 C 16.285156 13.773438 16.269531 13.757812 16.257812 13.742188 C 16.246094 13.734375 16.238281 13.726562 16.226562 13.714844 C 16.199219 13.6875 16.199219 13.6875 16.167969 13.644531 C 16.109375 13.578125 16.046875 13.515625 15.976562 13.460938 C 15.960938 13.460938 15.949219 13.460938 15.9375 13.460938 C 15.929688 13.445312 15.925781 13.425781 15.917969 13.40625 C 15.90625 13.40625 15.894531 13.40625 15.882812 13.40625 C 15.882812 13.394531 15.882812 13.382812 15.882812 13.367188 C 15.867188 13.367188 15.855469 13.367188 15.84375 13.367188 C 15.835938 13.351562 15.832031 13.332031 15.824219 13.3125 C 15.8125 13.3125 15.800781 13.3125 15.789062 13.3125 C 15.789062 13.300781 15.789062 13.289062 15.789062 13.273438 C 15.773438 13.273438 15.761719 13.273438 15.75 13.273438 C 15.742188 13.257812 15.738281 13.238281 15.730469 13.21875 C 15.71875 13.21875 15.707031 13.21875 15.695312 13.21875 C 15.695312 13.207031 15.695312 13.195312 15.695312 13.179688 C 15.679688 13.179688 15.667969 13.179688 15.65625 13.179688 C 15.648438 13.164062 15.644531 13.144531 15.636719 13.125 C 15.625 13.125 15.613281 13.125 15.601562 13.125 C 15.601562 13.113281 15.601562 13.101562 15.601562 13.085938 C 15.585938 13.085938 15.574219 13.085938 15.5625 13.085938 C 15.5625 13.074219 15.5625 13.0625 15.5625 13.050781 C 15.445312 13.058594 15.378906 13.136719 15.304688 13.21875 C 15.28125 13.246094 15.257812 13.269531 15.238281 13.296875 C 15.199219 13.339844 15.15625 13.382812 15.113281 13.425781 C 15.097656 13.441406 15.082031 13.457031 15.066406 13.472656 C 14.855469 13.683594 14.855469 13.683594 14.644531 13.894531 C 14.628906 13.910156 14.609375 13.925781 14.59375 13.945312 C 14.550781 13.988281 14.550781 13.988281 14.492188 14.023438 C 14.492188 14.039062 14.492188 14.050781 14.492188 14.0625 C 14.476562 14.066406 14.460938 14.070312 14.445312 14.070312 C 14.378906 14.101562 14.363281 14.117188 14.320312 14.167969 C 14.257812 14.246094 14.1875 14.296875 14.105469 14.351562 C 14.0625 14.382812 14.027344 14.417969 13.988281 14.457031 C 13.960938 14.460938 13.9375 14.46875 13.914062 14.476562 C 13.902344 14.484375 13.890625 14.496094 13.878906 14.507812 C 13.800781 14.585938 13.703125 14.640625 13.59375 14.664062 C 13.59375 14.675781 13.59375 14.6875 13.59375 14.699219 C 13.582031 14.703125 13.570312 14.707031 13.554688 14.710938 C 13.464844 14.734375 13.390625 14.761719 13.3125 14.8125 C 13.269531 14.828125 13.230469 14.839844 13.1875 14.855469 C 13.160156 14.863281 13.132812 14.871094 13.105469 14.882812 C 12.957031 14.933594 12.804688 14.964844 12.652344 14.992188 C 12.601562 15 12.601562 15 12.566406 15.007812 C 12.523438 15.019531 12.480469 15.023438 12.4375 15.023438 C 12.421875 15.023438 12.402344 15.027344 12.386719 15.027344 C 12.359375 15.027344 12.359375 15.027344 12.332031 15.027344 C 12.222656 15.03125 12.113281 15.039062 12 15.054688 C 11.953125 15.054688 11.914062 15.046875 11.867188 15.039062 C 11.839844 15.035156 11.808594 15.035156 11.777344 15.03125 C 11.761719 15.03125 11.742188 15.03125 11.726562 15.03125 C 11.691406 15.03125 11.65625 15.027344 11.621094 15.027344 C 11.527344 15.023438 11.449219 15.015625 11.363281 14.980469 C 11.324219 14.976562 11.324219 14.976562 11.285156 14.972656 C 11.128906 14.957031 10.984375 14.914062 10.835938 14.851562 C 10.800781 14.839844 10.765625 14.832031 10.730469 14.820312 C 10.660156 14.800781 10.601562 14.78125 10.539062 14.738281 C 10.472656 14.707031 10.472656 14.707031 10.40625 14.699219 C 10.40625 14.6875 10.40625 14.675781 10.40625 14.664062 C 10.394531 14.65625 10.378906 14.652344 10.367188 14.648438 C 10.308594 14.621094 10.25 14.59375 10.195312 14.566406 C 10.175781 14.554688 10.152344 14.546875 10.132812 14.535156 C 10.117188 14.527344 10.101562 14.519531 10.085938 14.511719 C 10.085938 14.5 10.085938 14.488281 10.085938 14.476562 C 10.074219 14.472656 10.0625 14.46875 10.050781 14.464844 C 9.988281 14.433594 9.949219 14.402344 9.898438 14.355469 C 9.859375 14.324219 9.859375 14.324219 9.808594 14.289062 C 9.726562 14.234375 9.660156 14.167969 9.589844 14.101562 C 9.546875 14.058594 9.546875 14.058594 9.507812 14.0625 C 9.507812 14.050781 9.507812 14.039062 9.507812 14.023438 C 9.476562 13.996094 9.476562 13.996094 9.4375 13.964844 C 9.375 13.910156 9.320312 13.859375 9.261719 13.800781 C 9.246094 13.785156 9.230469 13.769531 9.214844 13.753906 C 8.605469 13.144531 8.605469 13.144531 8.558594 13.089844 C 8.511719 13.042969 8.511719 13.042969 8.4375 13.050781 Z M 23.585938 19.480469 C 23.601562 19.492188 23.613281 19.507812 23.625 19.519531 C 23.625 19.507812 23.625 19.492188 23.625 19.480469 C 23.613281 19.480469 23.601562 19.480469 23.585938 19.480469 Z M 23.511719 19.554688 C 23.511719 19.570312 23.511719 19.582031 23.511719 19.59375 C 23.523438 19.585938 23.539062 19.582031 23.550781 19.574219 C 23.539062 19.570312 23.523438 19.5625 23.511719 19.554688 Z M 23.511719 19.554688 "/>
<path style=" stroke:none;fill-rule:nonzero;fill:rgb(99.215686%,99.215686%,99.215686%);fill-opacity:1;" d="M 1.949219 20.4375 C 8.582031 20.4375 15.214844 20.4375 22.050781 20.4375 C 22.050781 20.445312 22.050781 20.449219 22.050781 20.457031 C 15.417969 20.457031 8.785156 20.457031 1.949219 20.457031 C 1.949219 20.449219 1.949219 20.445312 1.949219 20.4375 Z M 1.949219 20.4375 "/>
<path style=" stroke:none;fill-rule:nonzero;fill:rgb(99.215686%,99.215686%,99.215686%);fill-opacity:1;" d="M 2.585938 4.96875 C 8.800781 4.96875 15.011719 4.96875 21.414062 4.96875 C 21.414062 4.976562 21.414062 4.980469 21.414062 4.988281 C 15.199219 4.988281 8.988281 4.988281 2.585938 4.988281 C 2.585938 4.980469 2.585938 4.976562 2.585938 4.96875 Z M 2.585938 4.96875 "/>
<path style=" stroke:none;fill-rule:nonzero;fill:rgb(99.215686%,99.215686%,99.215686%);fill-opacity:1;" d="M 1.40625 6.148438 C 1.414062 6.148438 1.417969 6.148438 1.425781 6.148438 C 1.425781 10.023438 1.425781 13.898438 1.425781 17.886719 C 1.417969 17.886719 1.414062 17.886719 1.40625 17.886719 C 1.40625 14.015625 1.40625 10.140625 1.40625 6.148438 Z M 1.40625 6.148438 "/>
<path style=" stroke:none;fill-rule:nonzero;fill:rgb(99.215686%,99.215686%,99.215686%);fill-opacity:1;" d="M 11.304688 15 C 11.363281 15.019531 11.363281 15.019531 11.363281 15.019531 Z M 11.304688 15 "/>
</g>
</svg>
